<svg xmlns="http://www.w3.org/2000/svg" width="1200" height="84" viewBox="0 0 1200 84" fill="none" xml:space="preserve" role="img" aria-label="03 - Inventory">
<title>03 - Inventory</title>
<defs><clipPath id="hc"><rect width="1200" height="84" rx="14"/></clipPath>
<linearGradient id="gl" x1="0" x2="1"><stop offset="0" stop-color="#ff9e64" stop-opacity="0"/><stop offset=".5" stop-color="#ff9e64"/><stop offset="1" stop-color="#ff9e64" stop-opacity="0"/></linearGradient></defs>
<style>
text{white-space:pre}
.sans{font-family:system-ui, -apple-system, 'Segoe UI', Roboto, Ubuntu, 'Helvetica Neue', Arial, sans-serif}
.mono{font-family:ui-monospace, 'SF Mono', 'Cascadia Code', Consolas, Menlo, 'DejaVu Sans Mono', 'Liberation Mono', monospace}
.b{font-weight:700}
.blink{animation:blink 1.06s steps(1) infinite}
@keyframes blink{50%{opacity:0}}
.glint{animation:gl 6s ease-in-out infinite}@keyframes gl{from{transform:translateX(-260px)}to{transform:translateX(1260px)}}</style>
<g clip-path="url(#hc)">
<rect width="1200" height="84" fill="#0d1117"/>
<rect width="5" height="84" fill="#ff9e64"/>
<path d="M37 24.5h4.2v4.2h-4.2zM42 24.5h4.2v4.2h-4.2zM47 24.5h4.2v4.2h-4.2zM32 29.5h4.2v4.2h-4.2zM52 29.5h4.2v4.2h-4.2zM32 34.5h4.2v4.2h-4.2zM47 34.5h4.2v4.2h-4.2zM52 34.5h4.2v4.2h-4.2zM32 39.5h4.2v4.2h-4.2zM42 39.5h4.2v4.2h-4.2zM52 39.5h4.2v4.2h-4.2zM32 44.5h4.2v4.2h-4.2zM37 44.5h4.2v4.2h-4.2zM52 44.5h4.2v4.2h-4.2zM32 49.5h4.2v4.2h-4.2zM52 49.5h4.2v4.2h-4.2zM37 54.5h4.2v4.2h-4.2zM42 54.5h4.2v4.2h-4.2zM47 54.5h4.2v4.2h-4.2zM62 24.5h4.2v4.2h-4.2zM67 24.5h4.2v4.2h-4.2zM72 24.5h4.2v4.2h-4.2zM77 24.5h4.2v4.2h-4.2zM82 29.5h4.2v4.2h-4.2zM82 34.5h4.2v4.2h-4.2zM67 39.5h4.2v4.2h-4.2zM72 39.5h4.2v4.2h-4.2zM77 39.5h4.2v4.2h-4.2zM82 44.5h4.2v4.2h-4.2zM82 49.5h4.2v4.2h-4.2zM62 54.5h4.2v4.2h-4.2zM67 54.5h4.2v4.2h-4.2zM72 54.5h4.2v4.2h-4.2zM77 54.5h4.2v4.2h-4.2z" fill="#ff9e64"/>
<path d="M109 24V60" stroke="#263049" stroke-width="2"/>
<path d="M133 24.5h4.2v4.2h-4.2zM138 24.5h4.2v4.2h-4.2zM143 24.5h4.2v4.2h-4.2zM148 24.5h4.2v4.2h-4.2zM153 24.5h4.2v4.2h-4.2zM143 29.5h4.2v4.2h-4.2zM143 34.5h4.2v4.2h-4.2zM143 39.5h4.2v4.2h-4.2zM143 44.5h4.2v4.2h-4.2zM143 49.5h4.2v4.2h-4.2zM133 54.5h4.2v4.2h-4.2zM138 54.5h4.2v4.2h-4.2zM143 54.5h4.2v4.2h-4.2zM148 54.5h4.2v4.2h-4.2zM153 54.5h4.2v4.2h-4.2zM163 24.5h4.2v4.2h-4.2zM183 24.5h4.2v4.2h-4.2zM163 29.5h4.2v4.2h-4.2zM168 29.5h4.2v4.2h-4.2zM183 29.5h4.2v4.2h-4.2zM163 34.5h4.2v4.2h-4.2zM168 34.5h4.2v4.2h-4.2zM183 34.5h4.2v4.2h-4.2zM163 39.5h4.2v4.2h-4.2zM173 39.5h4.2v4.2h-4.2zM183 39.5h4.2v4.2h-4.2zM163 44.5h4.2v4.2h-4.2zM178 44.5h4.2v4.2h-4.2zM183 44.5h4.2v4.2h-4.2zM163 49.5h4.2v4.2h-4.2zM178 49.5h4.2v4.2h-4.2zM183 49.5h4.2v4.2h-4.2zM163 54.5h4.2v4.2h-4.2zM183 54.5h4.2v4.2h-4.2zM193 24.5h4.2v4.2h-4.2zM213 24.5h4.2v4.2h-4.2zM193 29.5h4.2v4.2h-4.2zM213 29.5h4.2v4.2h-4.2zM193 34.5h4.2v4.2h-4.2zM213 34.5h4.2v4.2h-4.2zM193 39.5h4.2v4.2h-4.2zM213 39.5h4.2v4.2h-4.2zM193 44.5h4.2v4.2h-4.2zM213 44.5h4.2v4.2h-4.2zM198 49.5h4.2v4.2h-4.2zM208 49.5h4.2v4.2h-4.2zM203 54.5h4.2v4.2h-4.2zM223 24.5h4.2v4.2h-4.2zM228 24.5h4.2v4.2h-4.2zM233 24.5h4.2v4.2h-4.2zM238 24.5h4.2v4.2h-4.2zM243 24.5h4.2v4.2h-4.2zM223 29.5h4.2v4.2h-4.2zM223 34.5h4.2v4.2h-4.2zM223 39.5h4.2v4.2h-4.2zM228 39.5h4.2v4.2h-4.2zM233 39.5h4.2v4.2h-4.2zM238 39.5h4.2v4.2h-4.2zM223 44.5h4.2v4.2h-4.2zM223 49.5h4.2v4.2h-4.2zM223 54.5h4.2v4.2h-4.2zM228 54.5h4.2v4.2h-4.2zM233 54.5h4.2v4.2h-4.2zM238 54.5h4.2v4.2h-4.2zM243 54.5h4.2v4.2h-4.2zM253 24.5h4.2v4.2h-4.2zM273 24.5h4.2v4.2h-4.2zM253 29.5h4.2v4.2h-4.2zM258 29.5h4.2v4.2h-4.2zM273 29.5h4.2v4.2h-4.2zM253 34.5h4.2v4.2h-4.2zM258 34.5h4.2v4.2h-4.2zM273 34.5h4.2v4.2h-4.2zM253 39.5h4.2v4.2h-4.2zM263 39.5h4.2v4.2h-4.2zM273 39.5h4.2v4.2h-4.2zM253 44.5h4.2v4.2h-4.2zM268 44.5h4.2v4.2h-4.2zM273 44.5h4.2v4.2h-4.2zM253 49.5h4.2v4.2h-4.2zM268 49.5h4.2v4.2h-4.2zM273 49.5h4.2v4.2h-4.2zM253 54.5h4.2v4.2h-4.2zM273 54.5h4.2v4.2h-4.2zM283 24.5h4.2v4.2h-4.2zM288 24.5h4.2v4.2h-4.2zM293 24.5h4.2v4.2h-4.2zM298 24.5h4.2v4.2h-4.2zM303 24.5h4.2v4.2h-4.2zM293 29.5h4.2v4.2h-4.2zM293 34.5h4.2v4.2h-4.2zM293 39.5h4.2v4.2h-4.2zM293 44.5h4.2v4.2h-4.2zM293 49.5h4.2v4.2h-4.2zM293 54.5h4.2v4.2h-4.2zM318 24.5h4.2v4.2h-4.2zM323 24.5h4.2v4.2h-4.2zM328 24.5h4.2v4.2h-4.2zM313 29.5h4.2v4.2h-4.2zM333 29.5h4.2v4.2h-4.2zM313 34.5h4.2v4.2h-4.2zM333 34.5h4.2v4.2h-4.2zM313 39.5h4.2v4.2h-4.2zM333 39.5h4.2v4.2h-4.2zM313 44.5h4.2v4.2h-4.2zM333 44.5h4.2v4.2h-4.2zM313 49.5h4.2v4.2h-4.2zM333 49.5h4.2v4.2h-4.2zM318 54.5h4.2v4.2h-4.2zM323 54.5h4.2v4.2h-4.2zM328 54.5h4.2v4.2h-4.2zM343 24.5h4.2v4.2h-4.2zM348 24.5h4.2v4.2h-4.2zM353 24.5h4.2v4.2h-4.2zM358 24.5h4.2v4.2h-4.2zM343 29.5h4.2v4.2h-4.2zM363 29.5h4.2v4.2h-4.2zM343 34.5h4.2v4.2h-4.2zM363 34.5h4.2v4.2h-4.2zM343 39.5h4.2v4.2h-4.2zM348 39.5h4.2v4.2h-4.2zM353 39.5h4.2v4.2h-4.2zM358 39.5h4.2v4.2h-4.2zM343 44.5h4.2v4.2h-4.2zM353 44.5h4.2v4.2h-4.2zM343 49.5h4.2v4.2h-4.2zM358 49.5h4.2v4.2h-4.2zM343 54.5h4.2v4.2h-4.2zM363 54.5h4.2v4.2h-4.2zM373 24.5h4.2v4.2h-4.2zM393 24.5h4.2v4.2h-4.2zM373 29.5h4.2v4.2h-4.2zM393 29.5h4.2v4.2h-4.2zM378 34.5h4.2v4.2h-4.2zM388 34.5h4.2v4.2h-4.2zM383 39.5h4.2v4.2h-4.2zM383 44.5h4.2v4.2h-4.2zM383 49.5h4.2v4.2h-4.2zM383 54.5h4.2v4.2h-4.2z" fill="#e6edf3"/>
<rect class="blink" x="410" y="24.5" width="15" height="35" fill="#ff9e64"/>
<text class="mono" x="1168" y="48" font-size="16" fill="#8b93b8" text-anchor="end" textLength="153.6" lengthAdjust="spacing">// equipped tech</text>
<rect class="glint" y="82" width="240" height="2" fill="url(#gl)"/>
</g>
<rect x=".5" y=".5" width="1199" height="83" rx="13.5" stroke="#263049"/>
</svg>
